<svg width="1139" height="328" viewBox="0 0 1139 328" fill="none" xmlns="http://www.w3.org/2000/svg">
<path d="M304.257 249.04C319.324 224.244 328 195.135 328 164C328 73.4253 254.575 0 164 0C73.4253 0 0 73.4253 0 164C0 245.048 58.7915 312.364 136.054 325.629C136.076 325.263 136.087 324.937 136.087 324.657C136.087 323.933 136.075 322.123 136.058 319.589V319.587C135.99 309.448 135.845 287.726 136.087 277.588C136.109 276.68 136.132 275.731 136.156 274.751L136.157 274.702C136.469 262.022 136.905 244.246 135.784 242.288C135.695 242.133 135.597 241.961 135.489 241.774L135.487 241.771C134.122 239.401 131.255 234.423 127.607 226.597C125.074 221.163 121.287 208.858 117.538 196.675C115.46 189.922 113.394 183.206 111.559 177.719C106.411 162.332 110.043 153.278 110.043 153.278C110.043 153.278 99.1394 136.987 96.1117 122.202C93.084 107.419 101.259 95.3492 101.259 95.3492C101.259 95.3492 94.9028 80.5644 93.3871 74.5311C91.8733 68.496 87.3318 50.0923 92.1746 45.8676C96.1209 42.4275 104.483 49.9903 110.067 55.0412C111.341 56.1933 112.471 57.2149 113.37 57.9453C118.217 61.868 127.302 68.5053 130.632 70.3157C133.467 71.8546 138.705 71.4319 143.003 71.085C143.76 71.0238 144.489 70.965 145.17 70.9197C146.918 70.8028 149.068 70.9987 151.259 71.1983C154.766 71.5177 158.378 71.8468 160.616 70.9197C162.705 70.0511 163.993 68.3843 165.633 66.2639C166.844 64.6977 168.246 62.8842 170.303 60.9619C175.146 56.4351 189.079 44.6688 194.833 46.4791C199.394 47.9145 199.006 56.7471 198.649 64.8562C198.556 66.9743 198.465 69.0432 198.465 70.9179C198.465 79.9677 192.408 96.5629 192.408 96.5629C192.408 96.5629 194.227 105.915 195.439 109.536C196.165 111.702 198.515 113.868 200.935 116.099C202.559 117.596 204.215 119.123 205.432 120.698C208.458 124.621 211.485 131.258 211.485 131.258C211.485 131.258 249.64 142.422 262.965 154.49C276.289 166.557 289.313 196.126 292.338 209.403C295.366 222.678 297.185 238.067 297.185 238.067C297.185 238.067 298.094 239.875 302.333 249.229C302.584 249.783 302.826 250.369 303.059 250.981C303.463 250.337 303.862 249.69 304.257 249.04Z" fill="#C4C4C4"/>
<path d="M304.257 249.04C319.324 224.244 328 195.135 328 164C328 73.4253 254.575 0 164 0C73.4253 0 0 73.4253 0 164C0 245.048 58.7915 312.364 136.054 325.629C136.076 325.263 136.087 324.937 136.087 324.657C136.087 323.933 136.075 322.123 136.058 319.589V319.587C135.99 309.448 135.845 287.726 136.087 277.588C136.109 276.68 136.132 275.731 136.156 274.751L136.157 274.702C136.469 262.022 136.905 244.246 135.784 242.288C135.695 242.133 135.597 241.961 135.489 241.774L135.487 241.771C134.122 239.401 131.255 234.423 127.607 226.597C125.074 221.163 121.287 208.858 117.538 196.675C115.46 189.922 113.394 183.206 111.559 177.719C106.411 162.332 110.043 153.278 110.043 153.278C110.043 153.278 99.1394 136.987 96.1117 122.202C93.084 107.419 101.259 95.3492 101.259 95.3492C101.259 95.3492 94.9028 80.5644 93.3871 74.5311C91.8733 68.496 87.3318 50.0923 92.1746 45.8676C96.1209 42.4275 104.483 49.9903 110.067 55.0412C111.341 56.1933 112.471 57.2149 113.37 57.9453C118.217 61.868 127.302 68.5053 130.632 70.3157C133.467 71.8546 138.705 71.4319 143.003 71.085C143.76 71.0238 144.489 70.965 145.17 70.9197C146.918 70.8028 149.068 70.9987 151.259 71.1983C154.766 71.5177 158.378 71.8468 160.616 70.9197C162.705 70.0511 163.993 68.3843 165.633 66.2639C166.844 64.6977 168.246 62.8842 170.303 60.9619C175.146 56.4351 189.079 44.6688 194.833 46.4791C199.394 47.9145 199.006 56.7471 198.649 64.8562C198.556 66.9743 198.465 69.0432 198.465 70.9179C198.465 79.9677 192.408 96.5629 192.408 96.5629C192.408 96.5629 194.227 105.915 195.439 109.536C196.165 111.702 198.515 113.868 200.935 116.099C202.559 117.596 204.215 119.123 205.432 120.698C208.458 124.621 211.485 131.258 211.485 131.258C211.485 131.258 249.64 142.422 262.965 154.49C276.289 166.557 289.313 196.126 292.338 209.403C295.366 222.678 297.185 238.067 297.185 238.067C297.185 238.067 298.094 239.875 302.333 249.229C302.584 249.783 302.826 250.369 303.059 250.981C303.463 250.337 303.862 249.69 304.257 249.04Z" fill="url(#paint0_linear)"/>
<path d="M167.931 327.954C168.897 324.448 169.272 314.541 168.187 310.475C166.978 305.948 164.249 302.027 162.129 302.331C160.783 302.522 160.048 305.632 159.226 309.112C158.752 311.114 158.25 313.239 157.586 315.002C156.575 317.688 156.408 322.707 156.406 327.827C156.474 327.83 156.542 327.833 156.61 327.836C159.06 327.945 161.523 328 164 328C165.314 328 166.625 327.985 167.931 327.954Z" fill="#C4C4C4"/>
<path d="M167.931 327.954C168.897 324.448 169.272 314.541 168.187 310.475C166.978 305.948 164.249 302.027 162.129 302.331C160.783 302.522 160.048 305.632 159.226 309.112C158.752 311.114 158.25 313.239 157.586 315.002C156.575 317.688 156.408 322.707 156.406 327.827C156.474 327.83 156.542 327.833 156.61 327.836C159.06 327.945 161.523 328 164 328C165.314 328 166.625 327.985 167.931 327.954Z" fill="url(#paint1_linear)"/>
<path d="M409.424 270.672C403.824 270.672 398.98 269.468 394.892 267.06C390.804 264.596 387.64 261.096 385.4 256.56C383.216 251.968 382.124 246.564 382.124 240.348C382.124 234.188 383.216 228.84 385.4 224.304C387.64 219.712 390.804 216.212 394.892 213.804C398.98 211.34 403.824 210.108 409.424 210.108C413.176 210.108 416.704 210.724 420.008 211.956C423.368 213.132 426.28 214.84 428.744 217.08C429.64 217.92 430.088 218.9 430.088 220.02C430.088 220.804 429.864 221.504 429.416 222.12C428.968 222.68 428.436 222.96 427.82 222.96C427.148 222.96 426.336 222.652 425.384 222.036C422.528 219.796 419.924 218.228 417.572 217.332C415.276 216.436 412.616 215.988 409.592 215.988C403.096 215.988 398.084 218.116 394.556 222.372C391.084 226.572 389.348 232.564 389.348 240.348C389.348 248.188 391.084 254.236 394.556 258.492C398.084 262.692 403.096 264.792 409.592 264.792C412.56 264.792 415.22 264.344 417.572 263.448C419.924 262.552 422.528 260.984 425.384 258.744C426.336 258.128 427.148 257.82 427.82 257.82C428.436 257.82 428.968 258.1 429.416 258.66C429.864 259.22 430.088 259.92 430.088 260.76C430.088 261.88 429.64 262.86 428.744 263.7C426.28 265.94 423.368 267.676 420.008 268.908C416.704 270.084 413.176 270.672 409.424 270.672ZM456.043 228.084C466.291 228.084 471.415 233.46 471.415 244.212V267.06C471.415 268.068 471.107 268.88 470.491 269.496C469.931 270.112 469.147 270.42 468.139 270.42C467.131 270.42 466.319 270.112 465.703 269.496C465.087 268.88 464.779 268.068 464.779 267.06V263.028C463.715 265.436 462.091 267.312 459.907 268.656C457.723 269.944 455.203 270.588 452.347 270.588C449.715 270.588 447.279 270.056 445.039 268.992C442.855 267.928 441.119 266.444 439.831 264.54C438.543 262.636 437.899 260.536 437.899 258.24C437.899 255.16 438.683 252.78 440.251 251.1C441.819 249.364 444.395 248.132 447.979 247.404C451.563 246.62 456.547 246.228 462.931 246.228H464.779V243.456C464.779 240.096 464.079 237.632 462.679 236.064C461.335 234.496 459.123 233.712 456.043 233.712C452.235 233.712 448.371 234.748 444.451 236.82C442.939 237.772 441.875 238.248 441.259 238.248C440.587 238.248 440.027 237.996 439.579 237.492C439.131 236.988 438.907 236.344 438.907 235.56C438.907 234.776 439.131 234.104 439.579 233.544C440.083 232.928 440.867 232.312 441.931 231.696C443.891 230.576 446.103 229.708 448.567 229.092C451.087 228.42 453.579 228.084 456.043 228.084ZM453.271 265.212C456.631 265.212 459.375 264.092 461.503 261.852C463.687 259.556 464.779 256.616 464.779 253.032V250.596H463.267C458.339 250.596 454.587 250.82 452.011 251.268C449.435 251.66 447.587 252.36 446.467 253.368C445.403 254.32 444.871 255.748 444.871 257.652C444.871 259.836 445.655 261.656 447.223 263.112C448.847 264.512 450.863 265.212 453.271 265.212ZM502.77 265.044C504.73 265.212 505.71 266.108 505.71 267.732C505.71 268.684 505.346 269.412 504.618 269.916C503.946 270.364 502.91 270.532 501.51 270.42L499.242 270.252C494.762 269.916 491.458 268.572 489.33 266.22C487.202 263.868 486.138 260.312 486.138 255.552V234.468H480.51C479.558 234.468 478.802 234.244 478.242 233.796C477.738 233.292 477.486 232.648 477.486 231.864C477.486 231.024 477.738 230.352 478.242 229.848C478.802 229.344 479.558 229.092 480.51 229.092H486.138V219.6C486.138 218.536 486.446 217.724 487.062 217.164C487.678 216.548 488.518 216.24 489.582 216.24C490.59 216.24 491.402 216.548 492.018 217.164C492.634 217.724 492.942 218.536 492.942 219.6V229.092H502.266C503.162 229.092 503.862 229.344 504.366 229.848C504.926 230.352 505.206 231.024 505.206 231.864C505.206 232.648 504.926 233.292 504.366 233.796C503.862 234.244 503.162 234.468 502.266 234.468H492.942V255.888C492.942 258.968 493.558 261.208 494.79 262.608C496.078 263.952 497.982 264.708 500.502 264.876L502.77 265.044ZM553.981 270.672C549.781 270.672 545.749 270.056 541.885 268.824C538.077 267.536 535.025 265.828 532.729 263.7C531.889 262.916 531.469 261.936 531.469 260.76C531.469 259.976 531.693 259.304 532.141 258.744C532.589 258.128 533.121 257.82 533.737 257.82C534.465 257.82 535.249 258.128 536.089 258.744C541.297 262.776 547.233 264.792 553.897 264.792C558.713 264.792 562.409 263.868 564.985 262.02C567.561 260.172 568.849 257.54 568.849 254.124C568.849 252.164 568.233 250.596 567.001 249.42C565.769 248.188 564.145 247.208 562.129 246.48C560.113 245.752 557.397 244.996 553.981 244.212C549.389 243.148 545.609 242.028 542.641 240.852C539.729 239.676 537.349 237.996 535.501 235.812C533.709 233.628 532.813 230.772 532.813 227.244C532.813 223.884 533.709 220.916 535.501 218.34C537.349 215.708 539.897 213.692 543.145 212.292C546.449 210.836 550.201 210.108 554.401 210.108C558.321 210.108 561.961 210.724 565.321 211.956C568.737 213.132 571.593 214.84 573.889 217.08C574.785 217.976 575.233 218.956 575.233 220.02C575.233 220.804 575.009 221.504 574.561 222.12C574.113 222.68 573.581 222.96 572.965 222.96C572.349 222.96 571.537 222.652 570.529 222.036C567.785 219.796 565.237 218.228 562.885 217.332C560.533 216.436 557.705 215.988 554.401 215.988C549.753 215.988 546.141 216.968 543.565 218.928C540.989 220.832 539.701 223.52 539.701 226.992C539.701 229.96 540.821 232.2 543.061 233.712C545.357 235.168 548.857 236.456 553.561 237.576C558.657 238.808 562.661 239.956 565.573 241.02C568.485 242.028 570.893 243.568 572.797 245.64C574.757 247.712 575.737 250.484 575.737 253.956C575.737 257.26 574.813 260.172 572.965 262.692C571.173 265.212 568.625 267.172 565.321 268.572C562.017 269.972 558.237 270.672 553.981 270.672ZM589.361 270.42C588.353 270.42 587.513 270.14 586.841 269.58C586.225 268.964 585.917 268.124 585.917 267.06V231.612C585.917 230.548 586.225 229.736 586.841 229.176C587.513 228.56 588.353 228.252 589.361 228.252C590.369 228.252 591.181 228.56 591.797 229.176C592.413 229.736 592.721 230.548 592.721 231.612V267.06C592.721 268.18 592.413 269.02 591.797 269.58C591.181 270.14 590.369 270.42 589.361 270.42ZM589.361 219.432C588.017 219.432 586.925 219.04 586.085 218.256C585.245 217.472 584.825 216.436 584.825 215.148C584.825 213.916 585.245 212.908 586.085 212.124C586.925 211.34 588.017 210.948 589.361 210.948C590.705 210.948 591.797 211.34 592.637 212.124C593.477 212.908 593.897 213.916 593.897 215.148C593.897 216.436 593.477 217.472 592.637 218.256C591.797 219.04 590.705 219.432 589.361 219.432ZM624.997 265.044C626.957 265.212 627.937 266.108 627.937 267.732C627.937 268.684 627.573 269.412 626.845 269.916C626.173 270.364 625.137 270.532 623.737 270.42L621.469 270.252C616.989 269.916 613.685 268.572 611.557 266.22C609.429 263.868 608.365 260.312 608.365 255.552V234.468H602.737C601.785 234.468 601.029 234.244 600.469 233.796C599.965 233.292 599.713 232.648 599.713 231.864C599.713 231.024 599.965 230.352 600.469 229.848C601.029 229.344 601.785 229.092 602.737 229.092H608.365V219.6C608.365 218.536 608.673 217.724 609.289 217.164C609.905 216.548 610.745 216.24 611.809 216.24C612.817 216.24 613.629 216.548 614.245 217.164C614.861 217.724 615.169 218.536 615.169 219.6V229.092H624.493C625.389 229.092 626.089 229.344 626.593 229.848C627.153 230.352 627.433 231.024 627.433 231.864C627.433 232.648 627.153 233.292 626.593 233.796C626.089 234.244 625.389 234.468 624.493 234.468H615.169V255.888C615.169 258.968 615.785 261.208 617.017 262.608C618.305 263.952 620.209 264.708 622.729 264.876L624.997 265.044ZM653.79 265.044C655.75 265.212 656.73 266.108 656.73 267.732C656.73 268.684 656.366 269.412 655.638 269.916C654.966 270.364 653.93 270.532 652.53 270.42L650.262 270.252C645.782 269.916 642.478 268.572 640.35 266.22C638.222 263.868 637.158 260.312 637.158 255.552V234.468H631.53C630.578 234.468 629.822 234.244 629.262 233.796C628.758 233.292 628.506 232.648 628.506 231.864C628.506 231.024 628.758 230.352 629.262 229.848C629.822 229.344 630.578 229.092 631.53 229.092H637.158V219.6C637.158 218.536 637.466 217.724 638.082 217.164C638.698 216.548 639.538 216.24 640.602 216.24C641.61 216.24 642.422 216.548 643.038 217.164C643.654 217.724 643.962 218.536 643.962 219.6V229.092H653.286C654.182 229.092 654.882 229.344 655.386 229.848C655.946 230.352 656.226 231.024 656.226 231.864C656.226 232.648 655.946 233.292 655.386 233.796C654.882 234.244 654.182 234.468 653.286 234.468H643.962V255.888C643.962 258.968 644.578 261.208 645.81 262.608C647.098 263.952 649.002 264.708 651.522 264.876L653.79 265.044ZM695.105 260.508C695.721 260.508 696.253 260.76 696.701 261.264C697.149 261.768 697.373 262.412 697.373 263.196C697.373 264.596 696.393 265.884 694.433 267.06C692.417 268.236 690.289 269.132 688.049 269.748C685.809 270.308 683.625 270.588 681.497 270.588C675.169 270.588 670.157 268.712 666.461 264.96C662.821 261.208 661.001 256.028 661.001 249.42C661.001 245.22 661.813 241.524 663.437 238.332C665.061 235.084 667.329 232.564 670.241 230.772C673.209 228.98 676.569 228.084 680.321 228.084C685.641 228.084 689.869 229.82 693.005 233.292C696.141 236.764 697.709 241.468 697.709 247.404C697.709 248.524 697.485 249.336 697.037 249.84C696.589 250.344 695.861 250.596 694.853 250.596H667.805C668.309 260.228 672.873 265.044 681.497 265.044C683.681 265.044 685.557 264.764 687.125 264.204C688.693 263.588 690.373 262.776 692.165 261.768C693.621 260.928 694.601 260.508 695.105 260.508ZM680.405 233.376C676.821 233.376 673.937 234.496 671.753 236.736C669.625 238.976 668.365 242.14 667.973 246.228H691.745C691.633 242.084 690.597 238.92 688.637 236.736C686.677 234.496 683.933 233.376 680.405 233.376ZM727.978 228.252C730.33 228.084 731.506 229.036 731.506 231.108C731.506 232.004 731.254 232.732 730.75 233.292C730.246 233.796 729.378 234.104 728.146 234.216L725.626 234.468C721.874 234.804 719.074 236.148 717.226 238.5C715.434 240.796 714.538 243.512 714.538 246.648V267.06C714.538 268.18 714.23 269.02 713.614 269.58C712.998 270.14 712.186 270.42 711.178 270.42C710.17 270.42 709.33 270.14 708.658 269.58C708.042 268.964 707.734 268.124 707.734 267.06V231.612C707.734 230.548 708.07 229.736 708.742 229.176C709.414 228.56 710.226 228.252 711.178 228.252C712.074 228.252 712.83 228.56 713.446 229.176C714.062 229.736 714.37 230.52 714.37 231.528V236.232C715.546 233.768 717.198 231.892 719.326 230.604C721.51 229.316 724.002 228.56 726.802 228.336L727.978 228.252ZM750.713 270.588C748.137 270.588 745.673 270.28 743.321 269.664C741.025 269.048 738.981 268.18 737.189 267.06C736.181 266.388 735.453 265.772 735.005 265.212C734.613 264.596 734.417 263.868 734.417 263.028C734.417 262.3 734.613 261.712 735.005 261.264C735.453 260.76 736.013 260.508 736.685 260.508C737.357 260.508 738.337 260.928 739.625 261.768C741.305 262.776 742.957 263.588 744.581 264.204C746.261 264.764 748.333 265.044 750.797 265.044C753.821 265.044 756.173 264.512 757.853 263.448C759.533 262.384 760.373 260.844 760.373 258.828C760.373 257.596 760.065 256.616 759.449 255.888C758.833 255.104 757.769 254.432 756.257 253.872C754.745 253.256 752.533 252.64 749.621 252.024C744.693 250.96 741.165 249.532 739.037 247.74C736.909 245.948 735.845 243.512 735.845 240.432C735.845 238.024 736.517 235.896 737.861 234.048C739.205 232.2 741.053 230.744 743.405 229.68C745.813 228.616 748.529 228.084 751.553 228.084C753.737 228.084 755.837 228.392 757.853 229.008C759.925 229.568 761.745 230.38 763.313 231.444C765.217 232.788 766.169 234.188 766.169 235.644C766.169 236.372 765.945 236.988 765.497 237.492C765.049 237.996 764.517 238.248 763.901 238.248C763.229 238.248 762.221 237.772 760.877 236.82C759.309 235.812 757.825 235.028 756.425 234.468C755.025 233.908 753.289 233.628 751.217 233.628C748.585 233.628 746.457 234.216 744.833 235.392C743.265 236.568 742.481 238.136 742.481 240.096C742.481 241.328 742.761 242.336 743.321 243.12C743.937 243.848 744.917 244.52 746.261 245.136C747.661 245.696 749.649 246.256 752.225 246.816C756.033 247.656 758.973 248.58 761.045 249.588C763.173 250.596 764.685 251.828 765.581 253.284C766.477 254.74 766.925 256.588 766.925 258.828C766.925 262.356 765.441 265.212 762.473 267.396C759.505 269.524 755.585 270.588 750.713 270.588Z" fill="#9D228F"/>
<path d="M501.544 77.224C502.12 75.688 502.984 74.536 504.136 73.768C505.288 73 506.584 72.616 508.024 72.616C509.848 72.616 511.432 73.24 512.776 74.488C514.216 75.64 514.936 77.176 514.936 79.096C514.936 80.152 514.744 81.112 514.36 81.976L482.536 170.968C481.864 172.6 480.808 173.848 479.368 174.712C477.928 175.576 476.344 176.008 474.616 176.008C472.984 176.008 471.448 175.576 470.008 174.712C468.568 173.848 467.56 172.6 466.984 170.968L440.776 96.664L413.992 170.968C413.416 172.6 412.408 173.848 410.968 174.712C409.528 175.576 407.992 176.008 406.36 176.008C404.632 176.008 403.048 175.576 401.608 174.712C400.264 173.848 399.256 172.6 398.584 170.968L366.76 81.976C366.376 81.112 366.184 80.152 366.184 79.096C366.184 77.176 366.904 75.64 368.344 74.488C369.784 73.24 371.512 72.616 373.528 72.616C374.968 72.616 376.264 73 377.416 73.768C378.664 74.536 379.576 75.688 380.152 77.224L406.792 153.832L433.864 77.944C434.44 76.312 435.352 75.064 436.6 74.2C437.944 73.336 439.384 72.904 440.92 72.904C442.456 72.904 443.848 73.384 445.096 74.344C446.344 75.208 447.304 76.456 447.976 78.088L474.472 154.552L501.544 77.224ZM551.631 103C560.943 103 567.855 105.352 572.367 110.056C576.975 114.76 579.279 121.912 579.279 131.512V168.808C579.279 171.016 578.655 172.744 577.407 173.992C576.159 175.144 574.431 175.72 572.223 175.72C570.111 175.72 568.431 175.096 567.183 173.848C565.935 172.6 565.311 170.92 565.311 168.808V163.48C563.487 167.512 560.751 170.632 557.103 172.84C553.551 174.952 549.375 176.008 544.575 176.008C539.967 176.008 535.743 175.096 531.903 173.272C528.159 171.352 525.183 168.76 522.975 165.496C520.767 162.232 519.663 158.536 519.663 154.408C519.567 149.224 520.863 145.192 523.551 142.312C526.239 139.336 530.607 137.224 536.655 135.976C542.703 134.632 551.103 133.96 561.855 133.96H565.167V129.784C565.167 124.408 564.063 120.52 561.855 118.12C559.647 115.72 556.095 114.52 551.199 114.52C547.839 114.52 544.671 114.952 541.695 115.816C538.719 116.68 535.455 117.928 531.903 119.56C529.311 121 527.487 121.72 526.431 121.72C524.991 121.72 523.791 121.192 522.831 120.136C521.967 119.08 521.535 117.736 521.535 116.104C521.535 114.664 521.919 113.416 522.687 112.36C523.551 111.208 524.895 110.104 526.719 109.048C530.079 107.224 534.015 105.784 538.527 104.728C543.039 103.576 547.407 103 551.631 103ZM547.167 165.208C552.447 165.208 556.767 163.432 560.127 159.88C563.487 156.232 565.167 151.576 565.167 145.912V142.168H562.575C555.087 142.168 549.327 142.504 545.295 143.176C541.263 143.848 538.383 145 536.655 146.632C534.927 148.168 534.063 150.424 534.063 153.4C534.063 156.856 535.311 159.688 537.807 161.896C540.303 164.104 543.423 165.208 547.167 165.208ZM636.038 103.288C640.646 103 642.95 104.968 642.95 109.192C642.95 111.304 642.422 112.888 641.366 113.944C640.31 115 638.486 115.624 635.894 115.816L631.574 116.248C625.526 116.824 621.014 118.936 618.038 122.584C615.158 126.232 613.718 130.648 613.718 135.832V168.808C613.718 171.112 613.046 172.84 611.702 173.992C610.358 175.144 608.63 175.72 606.518 175.72C604.406 175.72 602.63 175.144 601.19 173.992C599.846 172.84 599.174 171.112 599.174 168.808V110.2C599.174 107.992 599.846 106.312 601.19 105.16C602.63 103.912 604.406 103.288 606.518 103.288C608.438 103.288 610.022 103.912 611.27 105.16C612.614 106.312 613.286 107.944 613.286 110.056V116.968C615.206 112.744 617.99 109.528 621.638 107.32C625.286 105.112 629.414 103.816 634.022 103.432L636.038 103.288ZM688.772 103.288C693.38 103 695.684 104.968 695.684 109.192C695.684 111.304 695.156 112.888 694.1 113.944C693.044 115 691.22 115.624 688.628 115.816L684.308 116.248C678.26 116.824 673.748 118.936 670.772 122.584C667.892 126.232 666.452 130.648 666.452 135.832V168.808C666.452 171.112 665.78 172.84 664.436 173.992C663.092 175.144 661.364 175.72 659.252 175.72C657.14 175.72 655.364 175.144 653.924 173.992C652.58 172.84 651.908 171.112 651.908 168.808V110.2C651.908 107.992 652.58 106.312 653.924 105.16C655.364 103.912 657.14 103.288 659.252 103.288C661.172 103.288 662.756 103.912 664.004 105.16C665.348 106.312 666.02 107.944 666.02 110.056V116.968C667.94 112.744 670.724 109.528 674.372 107.32C678.02 105.112 682.148 103.816 686.756 103.432L688.772 103.288ZM711.987 175.72C709.875 175.72 708.099 175.144 706.659 173.992C705.315 172.84 704.643 171.112 704.643 168.808V110.344C704.643 108.04 705.315 106.312 706.659 105.16C708.099 103.912 709.875 103.288 711.987 103.288C714.099 103.288 715.827 103.912 717.171 105.16C718.515 106.312 719.187 108.04 719.187 110.344V168.808C719.187 171.112 718.515 172.84 717.171 173.992C715.827 175.144 714.099 175.72 711.987 175.72ZM711.987 89.176C709.203 89.176 706.995 88.408 705.363 86.872C703.731 85.336 702.915 83.32 702.915 80.824C702.915 78.328 703.731 76.36 705.363 74.92C706.995 73.384 709.203 72.616 711.987 72.616C714.675 72.616 716.835 73.384 718.467 74.92C720.195 76.36 721.059 78.328 721.059 80.824C721.059 83.32 720.243 85.336 718.611 86.872C716.979 88.408 714.771 89.176 711.987 89.176ZM777.39 103C794.19 103 802.59 112.456 802.59 131.368V168.808C802.59 171.016 801.918 172.744 800.574 173.992C799.326 175.144 797.55 175.72 795.246 175.72C793.038 175.72 791.262 175.096 789.918 173.848C788.67 172.6 788.046 170.92 788.046 168.808V132.088C788.046 126.136 786.846 121.768 784.446 118.984C782.142 116.2 778.494 114.808 773.502 114.808C767.646 114.808 762.942 116.632 759.39 120.28C755.838 123.928 754.062 128.824 754.062 134.968V168.808C754.062 170.92 753.39 172.6 752.046 173.848C750.798 175.096 749.07 175.72 746.862 175.72C744.654 175.72 742.878 175.096 741.534 173.848C740.19 172.6 739.518 170.92 739.518 168.808V110.2C739.518 108.184 740.19 106.552 741.534 105.304C742.974 103.96 744.75 103.288 746.862 103.288C748.974 103.288 750.654 103.912 751.902 105.16C753.15 106.408 753.774 108.04 753.774 110.056V115.96C756.078 111.736 759.294 108.52 763.422 106.312C767.55 104.104 772.206 103 777.39 103ZM880.662 103.288C882.87 103.288 884.598 103.96 885.846 105.304C887.19 106.552 887.862 108.232 887.862 110.344V169.384C887.862 180.136 884.982 188.248 879.222 193.72C873.558 199.192 865.158 201.928 854.022 201.928C843.654 201.928 835.014 199.96 828.102 196.024C824.55 194.008 822.774 191.608 822.774 188.824C822.774 187.192 823.206 185.848 824.07 184.792C825.03 183.736 826.182 183.208 827.526 183.208C828.774 183.208 830.742 183.928 833.43 185.368C836.886 187 840.102 188.248 843.078 189.112C846.054 190.072 849.606 190.552 853.734 190.552C866.982 190.552 873.606 183.88 873.606 170.536V159.448C871.59 163.672 868.518 166.984 864.39 169.384C860.262 171.688 855.462 172.84 849.99 172.84C843.846 172.84 838.374 171.4 833.574 168.52C828.774 165.64 825.03 161.56 822.342 156.28C819.75 151 818.454 144.904 818.454 137.992C818.454 131.08 819.798 124.984 822.486 119.704C825.174 114.424 828.87 110.344 833.574 107.464C838.374 104.488 843.846 103 849.99 103C855.366 103 860.07 104.152 864.102 106.456C868.23 108.76 871.35 112.024 873.462 116.248V110.2C873.462 108.088 874.086 106.408 875.334 105.16C876.678 103.912 878.454 103.288 880.662 103.288ZM853.446 161.32C859.686 161.32 864.582 159.256 868.134 155.128C871.686 151 873.462 145.288 873.462 137.992C873.462 130.792 871.686 125.128 868.134 121C864.678 116.776 859.782 114.664 853.446 114.664C847.11 114.664 842.118 116.728 838.47 120.856C834.918 124.984 833.142 130.696 833.142 137.992C833.142 145.288 834.966 151 838.614 155.128C842.262 159.256 847.206 161.32 853.446 161.32ZM942.543 164.632C944.655 164.824 946.143 165.4 947.007 166.36C947.967 167.224 948.447 168.472 948.447 170.104C948.447 172.024 947.679 173.512 946.143 174.568C944.703 175.528 942.543 175.912 939.663 175.72L935.775 175.432C927.999 174.856 922.191 172.504 918.351 168.376C914.511 164.152 912.591 157.96 912.591 149.8V115.96H903.951C899.727 115.96 897.615 114.088 897.615 110.344C897.615 108.616 898.143 107.272 899.199 106.312C900.351 105.256 901.935 104.728 903.951 104.728H912.591V89.896C912.591 87.688 913.215 85.96 914.463 84.712C915.807 83.464 917.583 82.84 919.791 82.84C921.999 82.84 923.775 83.464 925.119 84.712C926.463 85.96 927.135 87.688 927.135 89.896V104.728H941.391C943.407 104.728 944.943 105.256 945.999 106.312C947.151 107.272 947.727 108.616 947.727 110.344C947.727 112.168 947.151 113.56 945.999 114.52C944.943 115.48 943.407 115.96 941.391 115.96H927.135V150.808C927.135 155.32 928.047 158.632 929.871 160.744C931.791 162.856 934.671 164.056 938.511 164.344L942.543 164.632ZM989.421 176.008C982.509 176.008 976.413 174.52 971.133 171.544C965.949 168.568 961.917 164.344 959.037 158.872C956.253 153.304 954.861 146.872 954.861 139.576C954.861 132.184 956.253 125.752 959.037 120.28C961.917 114.712 965.949 110.44 971.133 107.464C976.413 104.488 982.509 103 989.421 103C996.333 103 1002.38 104.488 1007.56 107.464C1012.84 110.44 1016.88 114.712 1019.66 120.28C1022.54 125.752 1023.98 132.184 1023.98 139.576C1023.98 146.872 1022.54 153.304 1019.66 158.872C1016.88 164.344 1012.84 168.568 1007.56 171.544C1002.38 174.52 996.333 176.008 989.421 176.008ZM989.421 164.488C995.853 164.488 1000.75 162.376 1004.11 158.152C1007.56 153.928 1009.29 147.736 1009.29 139.576C1009.29 131.512 1007.56 125.368 1004.11 121.144C1000.65 116.824 995.757 114.664 989.421 114.664C983.085 114.664 978.189 116.824 974.733 121.144C971.277 125.368 969.549 131.512 969.549 139.576C969.549 147.736 971.229 153.928 974.589 158.152C978.045 162.376 982.989 164.488 989.421 164.488ZM1078.05 103C1094.85 103 1103.25 112.456 1103.25 131.368V168.808C1103.25 171.016 1102.57 172.744 1101.23 173.992C1099.98 175.144 1098.21 175.72 1095.9 175.72C1093.69 175.72 1091.92 175.096 1090.57 173.848C1089.33 172.6 1088.7 170.92 1088.7 168.808V132.088C1088.7 126.136 1087.5 121.768 1085.1 118.984C1082.8 116.2 1079.15 114.808 1074.16 114.808C1068.3 114.808 1063.6 116.632 1060.05 120.28C1056.49 123.928 1054.72 128.824 1054.72 134.968V168.808C1054.72 170.92 1054.05 172.6 1052.7 173.848C1051.45 175.096 1049.73 175.72 1047.52 175.72C1045.31 175.72 1043.53 175.096 1042.19 173.848C1040.85 172.6 1040.17 170.92 1040.17 168.808V110.2C1040.17 108.184 1040.85 106.552 1042.19 105.304C1043.63 103.96 1045.41 103.288 1047.52 103.288C1049.63 103.288 1051.31 103.912 1052.56 105.16C1053.81 106.408 1054.43 108.04 1054.43 110.056V115.96C1056.73 111.736 1059.95 108.52 1064.08 106.312C1068.21 104.104 1072.86 103 1078.05 103Z" fill="black"/>
<defs>
<linearGradient id="paint0_linear" x1="164" y1="0" x2="164" y2="328" gradientUnits="userSpaceOnUse">
<stop stop-color="#96258F"/>
<stop offset="1" stop-color="#E5038C"/>
</linearGradient>
<linearGradient id="paint1_linear" x1="164" y1="0" x2="164" y2="328" gradientUnits="userSpaceOnUse">
<stop stop-color="#96258F"/>
<stop offset="1" stop-color="#E5038C"/>
</linearGradient>
</defs>
</svg>
