<svg width="328" height="328" viewBox="0 0 328 328" fill="none" xmlns="http://www.w3.org/2000/svg">
<path d="M304.257 249.04C319.324 224.244 328 195.135 328 164C328 73.4253 254.575 0 164 0C73.4253 0 0 73.4253 0 164C0 245.048 58.7915 312.364 136.054 325.629C136.076 325.263 136.087 324.937 136.087 324.657C136.087 323.933 136.075 322.123 136.058 319.589V319.587C135.99 309.448 135.845 287.726 136.087 277.588C136.109 276.68 136.132 275.731 136.156 274.751L136.157 274.702C136.469 262.022 136.905 244.246 135.784 242.288C135.695 242.133 135.597 241.961 135.489 241.774L135.487 241.771C134.122 239.401 131.255 234.423 127.607 226.597C125.074 221.163 121.287 208.858 117.538 196.675C115.46 189.922 113.394 183.206 111.559 177.719C106.411 162.332 110.043 153.278 110.043 153.278C110.043 153.278 99.1394 136.987 96.1117 122.202C93.084 107.419 101.259 95.3492 101.259 95.3492C101.259 95.3492 94.9028 80.5644 93.3871 74.5311C91.8733 68.496 87.3318 50.0923 92.1746 45.8676C96.1209 42.4275 104.483 49.9903 110.067 55.0412C111.341 56.1933 112.471 57.2149 113.37 57.9453C118.217 61.868 127.302 68.5053 130.632 70.3157C133.467 71.8546 138.705 71.4319 143.003 71.085C143.76 71.0238 144.489 70.965 145.17 70.9197C146.918 70.8028 149.068 70.9987 151.259 71.1983C154.766 71.5177 158.378 71.8468 160.616 70.9197C162.705 70.0511 163.993 68.3843 165.633 66.2639C166.844 64.6977 168.246 62.8842 170.303 60.9619C175.146 56.4351 189.079 44.6688 194.833 46.4791C199.394 47.9145 199.006 56.7471 198.649 64.8562C198.556 66.9743 198.465 69.0432 198.465 70.9179C198.465 79.9677 192.408 96.5629 192.408 96.5629C192.408 96.5629 194.227 105.915 195.439 109.536C196.165 111.702 198.515 113.868 200.935 116.099C202.559 117.596 204.215 119.123 205.432 120.698C208.458 124.621 211.485 131.258 211.485 131.258C211.485 131.258 249.64 142.422 262.965 154.49C276.289 166.557 289.313 196.126 292.338 209.403C295.366 222.678 297.185 238.067 297.185 238.067C297.185 238.067 298.094 239.875 302.333 249.229C302.584 249.783 302.826 250.369 303.059 250.981C303.463 250.337 303.862 249.69 304.257 249.04Z" fill="#C4C4C4"/>
<path d="M304.257 249.04C319.324 224.244 328 195.135 328 164C328 73.4253 254.575 0 164 0C73.4253 0 0 73.4253 0 164C0 245.048 58.7915 312.364 136.054 325.629C136.076 325.263 136.087 324.937 136.087 324.657C136.087 323.933 136.075 322.123 136.058 319.589V319.587C135.99 309.448 135.845 287.726 136.087 277.588C136.109 276.68 136.132 275.731 136.156 274.751L136.157 274.702C136.469 262.022 136.905 244.246 135.784 242.288C135.695 242.133 135.597 241.961 135.489 241.774L135.487 241.771C134.122 239.401 131.255 234.423 127.607 226.597C125.074 221.163 121.287 208.858 117.538 196.675C115.46 189.922 113.394 183.206 111.559 177.719C106.411 162.332 110.043 153.278 110.043 153.278C110.043 153.278 99.1394 136.987 96.1117 122.202C93.084 107.419 101.259 95.3492 101.259 95.3492C101.259 95.3492 94.9028 80.5644 93.3871 74.5311C91.8733 68.496 87.3318 50.0923 92.1746 45.8676C96.1209 42.4275 104.483 49.9903 110.067 55.0412C111.341 56.1933 112.471 57.2149 113.37 57.9453C118.217 61.868 127.302 68.5053 130.632 70.3157C133.467 71.8546 138.705 71.4319 143.003 71.085C143.76 71.0238 144.489 70.965 145.17 70.9197C146.918 70.8028 149.068 70.9987 151.259 71.1983C154.766 71.5177 158.378 71.8468 160.616 70.9197C162.705 70.0511 163.993 68.3843 165.633 66.2639C166.844 64.6977 168.246 62.8842 170.303 60.9619C175.146 56.4351 189.079 44.6688 194.833 46.4791C199.394 47.9145 199.006 56.7471 198.649 64.8562C198.556 66.9743 198.465 69.0432 198.465 70.9179C198.465 79.9677 192.408 96.5629 192.408 96.5629C192.408 96.5629 194.227 105.915 195.439 109.536C196.165 111.702 198.515 113.868 200.935 116.099C202.559 117.596 204.215 119.123 205.432 120.698C208.458 124.621 211.485 131.258 211.485 131.258C211.485 131.258 249.64 142.422 262.965 154.49C276.289 166.557 289.313 196.126 292.338 209.403C295.366 222.678 297.185 238.067 297.185 238.067C297.185 238.067 298.094 239.875 302.333 249.229C302.584 249.783 302.826 250.369 303.059 250.981C303.463 250.337 303.862 249.69 304.257 249.04Z" fill="url(#paint0_linear)"/>
<path d="M167.931 327.954C168.897 324.448 169.272 314.541 168.187 310.475C166.978 305.948 164.249 302.027 162.129 302.331C160.783 302.522 160.048 305.632 159.226 309.112C158.752 311.114 158.25 313.239 157.586 315.002C156.575 317.688 156.408 322.707 156.406 327.827C156.474 327.83 156.542 327.833 156.61 327.836C159.06 327.945 161.523 328 164 328C165.314 328 166.625 327.985 167.931 327.954Z" fill="#C4C4C4"/>
<path d="M167.931 327.954C168.897 324.448 169.272 314.541 168.187 310.475C166.978 305.948 164.249 302.027 162.129 302.331C160.783 302.522 160.048 305.632 159.226 309.112C158.752 311.114 158.25 313.239 157.586 315.002C156.575 317.688 156.408 322.707 156.406 327.827C156.474 327.83 156.542 327.833 156.61 327.836C159.06 327.945 161.523 328 164 328C165.314 328 166.625 327.985 167.931 327.954Z" fill="url(#paint1_linear)"/>
<defs>
<linearGradient id="paint0_linear" x1="164" y1="0" x2="164" y2="328" gradientUnits="userSpaceOnUse">
<stop stop-color="#96258F"/>
<stop offset="1" stop-color="#E5038C"/>
</linearGradient>
<linearGradient id="paint1_linear" x1="164" y1="0" x2="164" y2="328" gradientUnits="userSpaceOnUse">
<stop stop-color="#96258F"/>
<stop offset="1" stop-color="#E5038C"/>
</linearGradient>
</defs>
</svg>
